<?xml version="1.0" encoding="UTF-8"?>
<svg viewBox="0 0 1143 646.75" xmlns="http://www.w3.org/2000/svg">
 <g transform="matrix(1.25 0 0 -1.25 0 646.75)">
  <g transform="scale(.24)">
   <path d="m3564.5 1493c104.41-41.75 245.29-41.75 245.29-156.69 0-271.39-1122.2-433.21-1164-433.21l-370.57-809.18c-26.17-62.586-62.69-78.32-104.52-83.449l-120.12-10.457v563.68l-234.83 208.88c-26.14 0-177.6-25.989-490.67-25.989-365.41 0-464.62 15.559-490.72 15.559l-41.676-177.46c-5.312-31.418-94.054-47-109.65-26.113l-187.98 250.6c-36.469 0-130.46 10.305-130.46 41.746 0 41.629 15.648 57.336 36.523 67.743l-396.72 370.72c-26.027 26.02 67.93 78.19 151.36 36.59l386.31-182.68-26.141 302.75 88.777 15.49c31.321 5.28 99.285-41.78 120.07-62.49l271.54-292.37 469.75 88.8-219.3 224.28-1028.2 647.34 88.617 67.91s20.949 20.86 93.992 20.86l2041-793.54 636.87 120.07c26.07 5.3101 135.75 67.89 266.21 67.89 141.05 0 141.05-26.01 219.33-57.28"/>
  </g>
 </g>
</svg>
